<?xml version="1.0" encoding="utf-8"?>
<!DOCTYPE svg PUBLIC "-//W3C//DTD SVG 1.1//EN" "http://www.w3.org/Graphics/SVG/1.1/DTD/svg11.dtd">
<svg version="1.1" xmlns="http://www.w3.org/2000/svg" width="200px" height="200px" viewBox="0 0 200 200" preserveAspectRatio="xMidYMid meet">
 <g fill="#f7582d">
  <path d="M78.1 103.9 c-1.6 -4.5 -1.4 -9.9 0.3 -9.9 0.9 0 1.5 1.6 1.9 4.5 0.2 2.6 0.8 4.9 1.1 5.3 1.2 1.1 2.6 -2.1 2.6 -6 0 -2.7 0.4 -3.8 1.5 -3.8 1.9 0 2.1 6.7 0.3 10.5 -1.7 3.9 -6.3 3.5 -7.7 -0.6z"/>
  <path d="M90 104.1 c0 -1.6 0.7 -4.5 1.5 -6.5 1.2 -2.8 2.1 -3.6 4.1 -3.6 1.9 0 2.8 0.8 4 3.5 1.9 4.6 1.9 9.5 -0.1 9.5 -0.8 0 -1.5 -0.7 -1.5 -1.5 0 -0.9 -0.9 -1.5 -2.5 -1.5 -1.6 0 -2.5 0.6 -2.5 1.5 0 0.8 -0.7 1.5 -1.5 1.5 -1 0 -1.5 -1 -1.5 -2.9z m7 -5.2 c0 -2.4 -2.3 -2.1 -2.8 0.4 -0.2 1 0.3 1.7 1.2 1.7 1 0 1.6 -0.9 1.6 -2.1z"/>
  <path d="M105.2 105.8 c-0.7 -0.7 -1.2 -3.1 -1.2 -5.5 0 -4.6 1.7 -6.3 6.4 -6.3 3.6 0 3.4 2.8 -0.1 3.2 -2.3 0.2 -2.9 0.8 -3.1 3.6 -0.3 3 -0.1 3.2 2.7 3.2 2.1 0 3.1 0.5 3.1 1.5 0 1.9 -6 2.1 -7.8 0.3z"/>
  <path d="M117.3 106.3 c-2 -0.7 -1.7 -10.9 0.3 -11.7 3.1 -1.2 7.4 -0.7 7.4 0.9 0 1 -1 1.5 -3 1.5 -2.8 0 -3 0.3 -3 3.5 0 3.2 0.2 3.5 3 3.5 2 0 3 0.5 3 1.5 0 1.5 -4.8 2 -7.7 0.8z"/>
  <path d="M127 105.5 c0 -0.8 0.7 -1.5 1.5 -1.5 1 0 1.5 -1.1 1.5 -3.5 0 -2.4 -0.5 -3.5 -1.5 -3.5 -0.8 0 -1.5 -0.7 -1.5 -1.5 0 -1.1 1.2 -1.5 4.5 -1.5 3.3 0 4.5 0.4 4.5 1.5 0 0.8 -0.7 1.5 -1.5 1.5 -1 0 -1.5 1.1 -1.5 3.5 0 2.4 0.5 3.5 1.5 3.5 0.8 0 1.5 0.7 1.5 1.5 0 1.1 -1.2 1.5 -4.5 1.5 -3.3 0 -4.5 -0.4 -4.5 -1.5z"/>
  <path d="M139 100.5 c0 -7.3 1.1 -8.2 4.7 -3.7 l2.2 2.7 0.1 -2.7 c0 -2.1 0.5 -2.8 2 -2.8 1.8 0 2 0.7 2 6.5 0 5.8 -0.2 6.5 -2 6.5 -1.3 0 -2 -0.7 -2 -1.8 0 -1.1 -0.9 -2.7 -2 -3.7 -2 -1.8 -2 -1.7 -2 1.8 0 2.6 -0.4 3.7 -1.5 3.7 -1.2 0 -1.5 -1.4 -1.5 -6.5z"/>
  <path d="M153 100.5 l0 -6.5 4.5 0 c3.3 0 4.5 0.4 4.5 1.5 0 1 -1 1.5 -3 1.5 -1.6 0 -3 0.5 -3 1 0 0.6 1.1 1 2.5 1 1.6 0 2.5 0.6 2.5 1.5 0 0.9 -0.9 1.5 -2.5 1.5 -1.4 0 -2.5 0.5 -2.5 1 0 0.6 1.4 1 3 1 2 0 3 0.5 3 1.5 0 1.1 -1.2 1.5 -4.5 1.5 l-4.5 0 0 -6.5z"/>
  <path d="M91.3 89 c-2 -0.8 -2.3 -1.7 -2.3 -6.4 0 -4 0.4 -5.5 1.6 -6 2.8 -1.1 6.2 -0.6 7.8 1 1.6 1.6 2.1 8 0.8 10.1 -1 1.7 -5.3 2.4 -7.9 1.3z m4.7 -6 c0 -3.3 -0.3 -4 -2 -4 -1.7 0 -2 0.7 -2 4 0 3.3 0.3 4 2 4 1.7 0 2 -0.7 2 -4z"/>
  <path d="M77.7 88.3 c-0.4 -0.3 -0.7 -2.8 -0.7 -5.4 0 -5.3 1.5 -6.9 6.4 -6.9 3.6 0 3.4 2.8 -0.1 3.2 -2.5 0.3 -2.8 0.7 -2.8 3.8 0 3.1 0.3 3.5 2.8 3.8 1.5 0.2 2.7 0.8 2.7 1.3 0 1 -7.3 1.3 -8.3 0.2z"/>
  <path d="M104.2 86.5 c-1.7 -3.7 -1.6 -10.5 0.2 -10.5 0.9 0 1.5 1.6 1.9 4.5 0.2 2.6 0.7 4.8 1 5.1 1.4 1.4 2.7 -1.1 2.7 -5.2 0 -3.7 0.3 -4.4 2 -4.4 2.5 0 2.7 4.3 0.6 9.5 -1.2 2.9 -2 3.5 -4.4 3.5 -2.1 0 -3.2 -0.7 -4 -2.5z"/>
  <path d="M117 88 c0 -0.5 0.5 -1 1 -1 0.6 0 1 -1.8 1 -4 0 -2.2 -0.4 -4 -1 -4 -0.5 0 -1 -0.7 -1 -1.5 0 -1.1 1.1 -1.5 4 -1.5 2.9 0 4 0.4 4 1.5 0 0.8 -0.4 1.5 -1 1.5 -0.5 0 -1 1.8 -1 4 0 2.2 0.5 4 1 4 0.6 0 1 0.5 1 1 0 0.6 -1.8 1 -4 1 -2.2 0 -4 -0.4 -4 -1z"/>
  <path d="M129 82.6 c0 -6.5 0 -6.6 2.8 -6.6 6.6 0 7.3 0.8 7 6.9 l-0.3 5.6 -4.7 0.3 -4.8 0.3 0 -6.5z m6.8 0.1 c0.3 -3.2 0 -3.7 -1.7 -3.7 -1.8 0 -2.1 0.6 -2.1 4.1 0 3.3 0.3 4 1.8 3.7 1.2 -0.2 1.8 -1.4 2 -4.1z"/>
  <path d="M150 88 c0 -0.5 0.7 -1 1.5 -1 1.1 0 1.5 -1.1 1.5 -4 0 -3 -0.4 -4 -1.6 -4 -2.6 0 -0.9 -2.5 1.9 -2.8 2.6 -0.3 2.7 -0.2 2.7 4.8 0 3.6 0.4 5.2 1.5 5.6 3 1.2 1.4 2.4 -3 2.4 -2.5 0 -4.5 -0.4 -4.5 -1z"/>
  <path d="M163 88 c0 -0.5 1.1 -1 2.5 -1 1.6 0 2.5 -0.6 2.5 -1.5 0 -1 -1 -1.5 -3 -1.5 -2.8 0 -3 -0.3 -3 -3.5 0 -2.9 0.4 -3.6 2.6 -4.1 1.4 -0.4 3.6 -0.2 5 0.5 1.9 0.8 2.4 1.8 2.4 5 0 6.1 -0.7 7.1 -5.1 7.1 -2.1 0 -3.9 -0.4 -3.9 -1z m5 -7.5 c0 -0.8 -0.7 -1.5 -1.5 -1.5 -0.8 0 -1.5 0.7 -1.5 1.5 0 0.8 0.7 1.5 1.5 1.5 0.8 0 1.5 -0.7 1.5 -1.5z"/>
  <path d="M142 82.5 c0 -1 1 -1.5 3 -1.5 2 0 3 0.5 3 1.5 0 1 -1 1.5 -3 1.5 -2 0 -3 -0.5 -3 -1.5z"/>
 </g>
 <g fill="#fc9219">
  <path d="M42.5 106.6 c-6.6 -2.9 -11.2 -11.6 -10.1 -18.9 2.8 -17.4 25.9 -21.1 33.5 -5.5 1.7 3.7 2.1 6.3 2.1 15.1 l0 10.7 -11.2 0 c-7.1 -0.1 -12.4 -0.6 -14.3 -1.4z"/>
 </g>
 <g fill="#ffffff">
  <path d="M47 97.5 l0 -4.5 -4.5 0 c-4.3 0 -4.5 -0.1 -4.5 -3 0 -2.9 0.2 -3 4.5 -3 l4.5 0 0 -4.5 c0 -4.3 0.1 -4.5 3 -4.5 2.9 0 3 0.2 3 4.5 l0 4.5 4.5 0 c4.3 0 4.5 0.1 4.5 3 0 2.9 -0.2 3 -4.5 3 l-4.5 0 0 4.5 c0 4.3 -0.1 4.5 -3 4.5 -2.9 0 -3 -0.2 -3 -4.5z"/>
 </g>
</svg>